<?xml version="1.0" standalone="no"?>
<!DOCTYPE svg PUBLIC "-//W3C//DTD SVG 20010904//EN"
 "http://www.w3.org/TR/2001/REC-SVG-20010904/DTD/svg10.dtd">
<svg version="1.0" xmlns="http://www.w3.org/2000/svg"
 width="225.000000pt" height="225.000000pt" viewBox="0 0 225.000000 225.000000"
 preserveAspectRatio="xMidYMid meet">

<g transform="translate(0.000000,225.000000) scale(0.100000,-0.100000)"
fill="#000000" stroke="none">
<path d="M1040 2060 c-403 -39 -739 -342 -826 -743 -18 -83 -20 -268 -4 -357
77 -424 435 -741 866 -767 442 -26 830 249 960 682 24 80 27 107 28 240 0 123
-4 166 -22 238 -113 451 -539 752 -1002 707z m186 -285 c51 -21 103 -83 120
-143 22 -75 7 -143 -43 -201 -53 -63 -102 -84 -183 -79 -120 6 -198 82 -207
200 -14 175 149 291 313 223z m-135 -530 c3 -2 -4 -67 -15 -145 l-20 -140 40
-81 39 -81 38 81 38 81 -20 141 c-12 77 -21 142 -21 145 0 11 94 2 119 -11 40
-20 79 -70 86 -108 5 -29 -62 -528 -86 -635 -12 -55 -33 -86 -74 -112 -45 -28
-125 -27 -176 2 -64 36 -74 69 -124 417 l-45 314 22 46 c31 62 76 91 143 91
28 0 54 -2 56 -5z"/>
</g>
</svg>
