<?xml version="1.0" standalone="no"?>
<!DOCTYPE svg PUBLIC "-//W3C//DTD SVG 20010904//EN"
 "http://www.w3.org/TR/2001/REC-SVG-20010904/DTD/svg10.dtd">
<svg version="1.0" xmlns="http://www.w3.org/2000/svg"
 width="1200.000000pt" height="1200.000000pt" viewBox="0 0 1200.000000 1200.000000"
 preserveAspectRatio="xMidYMid meet">

<g transform="translate(0.000000,1200.000000) scale(0.100000,-0.100000)"
fill="#000000" stroke="none">
<path d="M5670 11989 c-1322 -76 -2550 -569 -3571 -1435 -159 -135 -554 -533
-683 -689 -144 -174 -263 -331 -378 -500 -1239 -1820 -1376 -4177 -356 -6135
393 -756 966 -1440 1645 -1968 1461 -1134 3351 -1529 5148 -1075 768 194 1515
554 2145 1034 381 290 771 670 1070 1044 656 818 1095 1831 1245 2867 45 313
59 517 59 868 0 351 -14 555 -59 868 -142 980 -540 1935 -1139 2730 -183 242
-314 391 -560 638 -308 307 -540 501 -871 726 -1083 737 -2393 1101 -3695
1027z m920 -173 c329 -37 593 -85 885 -161 2151 -555 3819 -2320 4254 -4500
86 -427 115 -768 108 -1245 -6 -363 -12 -457 -53 -740 -152 -1070 -599 -2075
-1291 -2906 -1012 -1215 -2452 -1962 -4026 -2089 -360 -29 -866 -17 -1222 30
-1096 143 -2133 596 -2981 1302 -1114 928 -1838 2220 -2048 3653 -44 303 -51
405 -51 840 0 445 6 532 56 875 105 720 380 1489 754 2110 262 436 532 782
885 1136 444 445 898 779 1445 1065 664 347 1431 572 2160 633 72 6 148 13
170 15 112 11 819 -3 955 -18z"/>
<path d="M5700 11664 c-123 -8 -312 -26 -420 -40 -1837 -232 -3457 -1366
-4318 -3024 -295 -568 -499 -1214 -581 -1840 -40 -305 -46 -401 -46 -760 0
-359 6 -455 46 -760 162 -1239 760 -2424 1670 -3304 1340 -1297 3184 -1850
5014 -1505 839 158 1653 519 2340 1037 289 218 667 572 894 837 702 821 1156
1811 1310 2860 71 479 80 1005 26 1480 -128 1114 -578 2150 -1315 3025 -233
276 -625 645 -920 866 -598 448 -1287 778 -1995 957 -306 78 -537 118 -860
152 -141 15 -714 28 -845 19z m896 -422 l59 -18 9 -78 c10 -87 3 -111 -34
-111 -19 0 -26 9 -39 46 -20 57 -37 78 -78 96 -52 21 -82 16 -119 -21 -67 -67
-42 -131 93 -229 125 -93 172 -174 160 -279 -14 -116 -91 -190 -216 -208 -111
-16 -249 32 -270 93 -6 16 -11 63 -11 103 0 64 2 73 20 79 23 7 50 -10 50 -32
0 -26 49 -110 80 -136 96 -81 222 -7 190 113 -13 49 -40 82 -109 132 -116 86
-161 154 -161 248 0 182 160 268 376 202z m-890 -3 c83 -21 153 -108 154 -189
0 -67 -20 -113 -70 -162 l-49 -47 68 -98 c93 -133 138 -181 186 -198 31 -10
40 -18 40 -36 0 -27 -25 -37 -100 -38 -105 -2 -179 56 -291 229 -51 78 -62 90
-86 90 -23 0 -28 -4 -28 -25 0 -57 22 -221 32 -232 5 -6 24 -13 41 -15 28 -3
32 -7 32 -33 l0 -30 -95 -6 c-52 -4 -123 -10 -157 -14 -55 -6 -62 -5 -72 13
-13 24 8 52 39 52 40 0 41 27 20 302 -12 145 -24 283 -28 308 -7 43 -9 45 -47
50 -32 4 -41 10 -43 27 -5 31 18 38 174 57 131 15 204 14 280 -5z m1434 -93
c121 -26 156 -37 158 -50 6 -27 -17 -46 -54 -46 -28 0 -36 -5 -45 -27 -13 -35
-129 -558 -129 -583 0 -13 13 -28 35 -41 34 -21 46 -51 24 -64 -6 -4 -80 8
-165 26 -153 33 -155 33 -152 58 3 22 9 26 40 29 20 2 41 9 47 16 16 19 143
595 136 616 -3 10 -19 23 -35 29 -22 7 -30 16 -30 34 0 18 7 38 14 37 1 0 71
-15 156 -34z m-2206 -68 c31 -83 30 -108 -8 -108 -17 0 -30 10 -44 35 -12 20
-32 37 -48 41 -32 8 -184 -25 -191 -42 -2 -7 10 -66 27 -132 l32 -120 56 15
c85 22 104 37 100 80 -3 38 17 61 44 51 8 -3 26 -51 42 -114 37 -142 37 -148
6 -152 -21 -2 -29 4 -43 33 -14 29 -22 35 -47 35 -46 0 -121 -21 -127 -36 -5
-13 26 -137 53 -211 8 -23 24 -45 34 -48 22 -7 139 19 178 39 42 22 62 49 70
96 8 45 29 67 55 57 20 -8 31 -81 22 -152 -6 -53 -8 -55 -43 -64 -20 -4 -143
-36 -272 -70 -129 -34 -242 -61 -251 -61 -17 0 -31 32 -20 46 3 5 23 17 44 26
23 11 37 25 37 36 0 29 -150 585 -162 599 -6 7 -26 13 -44 13 -28 0 -35 5 -40
25 -4 14 -4 28 -1 32 3 3 99 29 214 59 114 29 222 58 238 63 50 16 58 10 89
-71z m2706 -42 c6 -17 26 -30 62 -44 29 -11 148 -57 263 -102 173 -68 214 -80
235 -73 28 11 50 7 50 -9 0 -6 -17 -45 -39 -88 -21 -42 -40 -83 -43 -90 -3 -9
-13 -11 -31 -6 -25 6 -27 10 -25 56 3 62 -12 78 -101 114 -35 14 -65 25 -66
23 -12 -15 -225 -582 -225 -598 0 -5 18 -20 40 -34 44 -28 46 -33 27 -60 -13
-17 -19 -16 -128 27 -63 25 -138 54 -166 64 -53 19 -63 33 -44 63 7 11 17 12
52 3 51 -13 54 -11 78 36 26 51 211 531 211 547 0 15 -110 55 -151 55 -14 0
-43 -14 -64 -30 -41 -33 -62 -35 -78 -9 -8 12 3 34 47 97 32 45 64 82 72 82 8
0 19 -11 24 -24z m-3462 -111 c2 -12 -9 -32 -28 -50 l-30 -29 0 -150 c0 -149
13 -432 26 -573 6 -71 6 -73 -18 -82 -23 -9 -38 3 -189 151 -90 88 -217 210
-281 269 -112 104 -119 109 -161 109 -52 0 -80 22 -56 44 8 8 71 41 141 74
124 59 127 60 144 41 17 -18 16 -21 -10 -48 l-27 -28 177 -172 c96 -95 178
-171 180 -168 5 5 -11 294 -22 420 l-7 67 -31 0 c-33 0 -56 15 -56 37 0 16
198 112 225 110 12 -1 21 -10 23 -22z m4350 -293 c31 -21 87 -56 125 -76 37
-21 67 -44 67 -51 0 -21 -26 -36 -56 -33 -26 3 -29 0 -36 -42 -14 -82 -36
-265 -32 -269 3 -3 145 83 232 142 l44 29 -22 23 c-18 19 -20 27 -11 44 7 12
17 21 24 20 24 -1 202 -117 205 -133 7 -32 -14 -44 -56 -33 -21 6 -49 7 -63 4
-25 -6 -297 -159 -341 -193 -24 -17 -111 -139 -137 -191 -18 -36 -13 -57 21
-84 32 -27 34 -54 4 -65 -9 -3 -60 22 -118 59 -57 35 -122 75 -145 88 -46 26
-52 39 -27 63 14 14 18 14 44 1 16 -8 36 -15 45 -15 15 0 107 134 132 191 6
15 22 122 34 238 l23 211 -27 28 c-29 31 -34 51 -15 70 18 18 24 16 86 -26z
m-5300 -174 c18 -18 15 -42 -8 -56 -11 -7 -20 -23 -20 -37 0 -24 287 -464 335
-514 21 -22 26 -23 54 -11 37 15 61 8 61 -18 0 -14 -40 -46 -130 -107 -108
-72 -133 -85 -145 -75 -21 17 -19 44 5 65 11 10 20 26 20 36 0 19 -295 467
-335 508 -21 22 -25 22 -60 10 -33 -12 -38 -12 -51 5 -7 10 -11 23 -8 27 2 4
56 42 119 84 63 42 117 81 121 86 7 13 28 11 42 -3z m-498 -353 c10 -12 9 -20
-4 -40 -33 -50 -30 -54 178 -280 66 -71 157 -169 203 -216 81 -82 84 -87 72
-112 -7 -15 -15 -27 -18 -27 -3 0 -175 23 -381 50 -206 27 -376 47 -378 45 -7
-7 279 -304 313 -325 32 -20 35 -20 68 -4 40 19 67 13 67 -13 0 -10 -43 -57
-94 -105 l-94 -88 -23 19 c-22 18 -22 19 -6 44 32 50 23 66 -127 227 -168 180
-251 261 -273 266 -14 4 -41 -1 -63 -11 -32 -15 -42 -15 -55 -5 -8 7 -15 18
-15 24 0 7 38 46 84 89 75 68 87 76 109 68 39 -15 209 -41 429 -64 180 -20
205 -21 198 -7 -5 8 -69 77 -143 153 -143 145 -160 155 -211 122 -25 -17 -51
-12 -60 10 -6 17 171 194 195 195 9 0 22 -7 29 -15z m3730 -80 c730 -89 1390
-352 1965 -783 168 -127 273 -218 445 -391 441 -442 768 -969 966 -1556 339
-1006 271 -2102 -189 -3055 -506 -1047 -1453 -1836 -2572 -2144 -840 -230
-1738 -183 -2555 137 -557 217 -1090 582 -1494 1022 -594 647 -950 1429 -1052
2310 -22 189 -25 642 -6 825 86 809 377 1521 878 2150 135 169 439 475 604
606 285 227 543 388 847 529 437 202 876 318 1378 364 150 14 626 6 785 -14z
m3273 -322 c85 -41 160 -116 201 -203 27 -58 31 -75 31 -156 0 -84 -2 -95 -38
-168 -67 -135 -177 -223 -318 -252 -149 -31 -306 33 -400 165 -133 186 -90
426 102 567 84 61 158 84 264 81 78 -2 99 -6 158 -34z m-7793 -408 c0 -7 -5
-26 -10 -40 -9 -24 -7 -31 23 -59 18 -17 91 -72 163 -121 150 -104 225 -171
262 -235 23 -38 27 -56 26 -120 0 -89 -25 -146 -100 -228 -64 -72 -112 -96
-194 -96 -86 -1 -134 23 -335 164 -88 62 -175 119 -192 128 -31 15 -34 14 -56
-6 -43 -41 -86 -15 -56 34 44 72 161 234 169 234 18 0 41 -33 34 -49 -4 -9 -8
-29 -8 -45 -1 -27 13 -39 164 -144 242 -168 306 -193 393 -154 45 20 84 70
102 131 12 39 -15 109 -61 160 -57 63 -364 271 -401 271 -15 0 -37 -9 -49 -21
-24 -23 -64 -19 -64 7 0 14 126 203 144 216 14 9 46 -10 46 -27z m8392 -292
c23 -38 87 -134 140 -216 54 -81 98 -151 98 -155 0 -11 -145 -102 -163 -102
-34 0 -37 33 -6 70 39 46 37 82 -7 156 -19 32 -39 63 -44 68 -5 5 -58 -23
-124 -65 l-115 -73 24 -41 c14 -22 36 -54 50 -72 25 -32 25 -32 65 -18 35 12
41 12 55 -1 8 -9 15 -21 15 -27 -1 -17 -210 -149 -227 -143 -28 11 -26 37 7
71 31 32 31 33 15 64 -9 17 -28 51 -44 76 l-28 44 -104 -68 c-134 -87 -137
-90 -114 -141 10 -21 15 -46 12 -54 -9 -23 -44 -19 -61 7 -7 12 -48 75 -90
141 -61 94 -74 121 -65 132 16 20 39 17 66 -8 20 -19 28 -20 51 -12 33 13 469
295 499 324 19 17 21 24 11 50 -7 23 -7 34 2 45 22 27 39 16 82 -52z m-8751
-975 c28 -104 7 -261 -46 -354 -52 -90 -179 -214 -199 -194 -15 15 -20 185 -7
251 25 123 89 233 176 300 28 21 53 39 57 39 4 0 12 -19 19 -42z m8970 -45
c96 -101 148 -260 135 -411 -9 -111 -12 -113 -83 -54 -144 120 -217 311 -183
477 7 33 14 63 17 68 8 13 62 -25 114 -80z m-9409 -404 c21 -30 48 -83 60
-119 44 -127 24 -309 -47 -426 l-23 -38 -40 62 c-76 118 -109 278 -83 404 15
69 68 180 85 175 6 -2 28 -28 48 -58z m9813 0 c29 -57 55 -157 55 -214 0 -98
-60 -272 -118 -344 l-20 -25 -30 60 c-80 159 -82 325 -6 475 29 58 73 111 85
103 5 -3 21 -28 34 -55z m-9325 -138 c0 -68 -32 -166 -78 -237 -59 -92 -150
-162 -263 -205 l-52 -20 6 41 c12 95 133 300 223 378 41 37 135 92 156 92 4 0
8 -22 8 -49z m8828 17 c96 -45 223 -207 281 -358 17 -44 31 -88 31 -100 0 -20
0 -20 -50 -1 -199 76 -319 227 -345 435 -8 58 -7 58 16 51 13 -4 44 -16 67
-27z m-9434 -527 c18 -36 39 -90 46 -120 22 -93 -1 -284 -40 -341 -25 -36
-143 146 -175 270 -23 87 -16 213 15 294 l22 58 49 -48 c27 -26 64 -77 83
-113z m10115 94 c62 -165 15 -383 -110 -519 l-47 -51 -14 35 c-64 152 -51 342
31 471 38 61 90 119 106 119 8 0 23 -25 34 -55z m-9629 -98 c0 -55 -24 -147
-55 -212 -47 -98 -135 -182 -250 -236 -47 -23 -88 -39 -91 -36 -10 10 26 118
66 196 71 142 166 248 262 291 56 25 68 25 68 -3z m9058 3 c57 -26 153 -119
209 -202 51 -77 113 -219 113 -260 l0 -28 -51 21 c-200 78 -338 261 -339 447
0 48 6 50 68 22z m-9420 -616 c15 -11 38 -41 50 -67 32 -63 24 -115 -27 -169
-76 -82 -194 -67 -250 32 -41 74 -18 155 60 208 28 20 43 23 87 20 31 -3 64
-13 80 -24z m9872 6 c122 -62 107 -235 -24 -285 -100 -38 -206 40 -206 153 0
74 77 152 152 152 21 0 57 -9 78 -20z m-9826 -437 c83 -44 179 -135 218 -209
36 -66 58 -154 58 -226 l0 -58 -37 15 c-91 38 -179 133 -247 265 -61 118 -100
250 -76 250 7 0 44 -17 84 -37z m9706 10 c0 -48 -56 -191 -107 -275 -53 -88
-137 -173 -204 -206 l-44 -22 -7 21 c-10 25 6 139 27 199 37 106 141 219 256
278 34 18 66 32 70 32 5 0 9 -12 9 -27z m-9865 -35 c40 -132 28 -276 -33 -398
-31 -61 -138 -178 -152 -164 -20 21 -40 123 -40 203 0 93 25 181 73 264 29 48
114 147 128 147 4 0 15 -24 24 -52z m10036 -20 c91 -116 134 -244 126 -373 -5
-78 -31 -175 -47 -175 -4 0 -33 27 -64 61 -93 100 -136 208 -136 338 0 67 21
188 36 212 9 15 42 -10 85 -63z m-9777 -495 c86 -45 192 -147 230 -220 33 -66
58 -172 54 -230 l-3 -44 -62 31 c-100 50 -186 159 -259 328 -33 76 -55 172
-39 172 4 0 39 -17 79 -37z m9506 16 c0 -34 -49 -170 -86 -238 -69 -126 -159
-219 -247 -256 l-37 -15 0 57 c1 189 105 344 295 442 72 36 75 37 75 10z
m-9670 -42 c51 -114 64 -264 34 -368 -18 -62 -60 -138 -104 -189 -29 -34 -31
-34 -45 -16 -29 38 -57 131 -62 206 -6 82 4 145 37 233 23 62 96 177 111 177
6 0 19 -19 29 -43z m9797 21 c90 -100 144 -285 123 -422 -11 -69 -55 -186 -71
-186 -15 0 -78 87 -108 149 -41 87 -56 181 -42 270 11 72 58 211 70 211 4 0
17 -10 28 -22z m-9542 -530 c115 -128 162 -283 131 -434 -8 -43 -20 -82 -25
-87 -15 -15 -93 54 -140 124 -59 88 -85 181 -85 299 0 52 6 114 13 138 10 37
14 41 30 32 11 -5 44 -38 76 -72z m9344 32 c16 -73 14 -206 -4 -275 -23 -87
-70 -167 -135 -230 -32 -30 -63 -55 -68 -55 -14 0 -33 70 -39 151 -11 148 40
275 160 397 34 34 65 62 68 62 4 0 12 -23 18 -50z m-645 -608 c4 -11 -1 -36
-9 -56 -29 -70 -45 -56 344 -295 390 -240 378 -235 430 -176 32 37 61 44 81
20 10 -12 -3 -38 -73 -147 -47 -73 -101 -163 -122 -200 -38 -70 -60 -83 -85
-53 -10 12 -9 24 5 64 10 27 15 56 12 64 -8 21 -58 57 -206 146 -104 64 -124
72 -136 60 -7 -8 -72 -111 -144 -229 -104 -169 -129 -216 -119 -226 7 -6 78
-50 157 -98 168 -101 185 -104 233 -46 34 43 62 49 81 19 8 -12 -10 -48 -80
-160 -49 -79 -103 -168 -119 -196 -21 -39 -35 -53 -51 -53 -33 0 -43 27 -26
68 30 72 45 59 -367 312 -376 230 -359 224 -410 160 -36 -45 -49 -49 -74 -21
-17 19 -16 23 42 113 33 51 87 138 120 193 60 102 85 122 108 90 11 -14 10
-24 -1 -53 -21 -49 -19 -65 13 -94 41 -39 261 -171 275 -165 15 6 277 431 277
449 0 18 -252 168 -294 175 -29 4 -37 1 -63 -32 -33 -39 -75 -46 -81 -13 -2
10 41 89 95 177 54 88 106 173 115 190 20 36 63 43 72 13z m-8036 -104 c175
-262 272 -474 272 -594 0 -157 -125 -279 -285 -279 -61 0 -79 5 -133 34 -96
52 -215 193 -199 235 12 30 36 29 74 -4 75 -67 159 -78 253 -34 99 46 143 109
143 204 0 58 -40 155 -67 166 -15 6 -657 -358 -716 -405 -19 -16 -36 -36 -38
-45 -2 -9 7 -42 19 -72 23 -55 23 -56 4 -70 -10 -8 -24 -13 -30 -11 -5 2 -28
35 -49 73 -22 38 -75 129 -118 203 -43 73 -78 140 -78 147 0 8 10 19 23 24 18
7 27 3 53 -26 38 -41 66 -43 132 -10 67 34 569 323 617 355 47 31 53 56 30
113 -12 31 -13 43 -4 54 24 29 48 15 97 -58z m541 -831 c54 -68 122 -150 150
-182 40 -45 48 -61 41 -75 -18 -33 -41 -32 -82 5 -44 40 -60 40 -118 -3 -54
-40 -526 -429 -565 -466 -40 -38 -44 -67 -15 -111 25 -38 25 -61 1 -75 -11 -5
-22 -10 -25 -10 -3 0 -26 28 -52 63 -27 34 -92 114 -146 178 -54 64 -98 124
-98 132 0 9 9 21 21 27 17 10 26 6 60 -24 46 -42 52 -43 99 -15 63 38 607 498
618 523 9 20 6 32 -14 69 -13 26 -24 48 -24 51 0 8 31 36 40 36 5 0 54 -56
109 -123z m6817 -283 c52 -47 94 -92 94 -98 0 -7 -9 -21 -19 -30 -19 -17 -23
-17 -88 9 -55 22 -78 26 -124 22 -160 -14 -329 -195 -345 -368 -25 -261 286
-561 538 -519 100 16 169 50 246 124 54 51 75 90 66 119 -8 26 -142 167 -159
167 -6 0 -41 -18 -77 -40 -69 -41 -93 -43 -104 -8 -5 16 4 30 42 62 27 22 109
96 181 164 117 109 135 122 153 112 25 -14 25 -35 0 -67 -35 -45 -26 -67 58
-153 52 -54 86 -81 106 -84 16 -3 33 -11 37 -17 10 -18 -152 -227 -248 -320
-177 -172 -347 -248 -533 -236 -104 6 -173 31 -261 97 -188 137 -260 377 -182
602 60 174 196 332 405 476 57 39 107 71 112 71 5 1 51 -38 102 -85z m-6498
-51 c5 -10 7 -24 5 -31 -8 -20 12 -38 312 -286 379 -314 359 -299 397 -298 69
2 75 -33 16 -86 -23 -20 -64 -61 -92 -89 -53 -58 -65 -62 -89 -35 -15 16 -15
22 5 74 20 56 20 57 2 95 -20 40 -181 185 -201 181 -12 -3 -471 -555 -515
-620 -16 -23 -28 -47 -28 -55 0 -7 18 -33 41 -58 42 -45 47 -70 17 -88 -13 -9
-30 1 -90 52 -40 35 -129 109 -198 164 -102 82 -125 105 -125 126 0 39 36 39
87 2 23 -17 51 -31 63 -31 12 0 41 21 67 48 87 89 506 605 501 616 -6 14 -103
93 -161 131 -51 34 -113 37 -177 11 -40 -17 -40 -17 -63 10 -13 15 -20 30 -15
35 23 22 210 149 220 149 7 0 16 -8 21 -17z m870 -681 c7 -5 14 -19 17 -32 2
-12 6 -24 7 -25 9 -8 183 -91 462 -220 293 -136 322 -147 361 -142 28 4 48 2
60 -7 17 -13 15 -18 -34 -95 -29 -45 -59 -98 -67 -117 -15 -37 -37 -43 -64
-19 -14 12 -16 24 -10 56 9 50 3 77 -24 108 -22 24 -205 121 -229 121 -22 0
-350 -715 -351 -765 -1 -37 2 -42 46 -70 50 -32 61 -62 33 -85 -13 -11 -43 0
-183 68 -92 44 -196 93 -232 107 -71 30 -80 38 -73 65 8 29 27 31 94 8 l61
-21 24 25 c21 21 315 635 350 731 l13 37 -68 34 c-89 45 -174 70 -215 62 -18
-4 -54 -20 -80 -37 -44 -30 -47 -30 -71 -15 -14 9 -25 21 -25 26 0 12 169 210
179 210 3 0 12 -4 19 -8z m4657 -66 c155 -72 193 -254 84 -407 -12 -17 -19
-32 -17 -34 2 -2 87 -46 188 -98 206 -106 273 -127 348 -109 52 12 62 9 62
-18 0 -24 -36 -52 -119 -93 -61 -30 -73 -32 -166 -31 -118 0 -150 12 -345 123
-69 39 -135 71 -148 71 -28 0 -82 -27 -82 -41 0 -15 140 -261 163 -286 24 -27
44 -29 95 -7 35 14 38 14 54 -6 24 -30 15 -42 -50 -74 -31 -15 -122 -64 -201
-108 -110 -61 -148 -78 -160 -71 -30 19 -23 47 19 76 50 35 51 56 9 140 -39
76 -326 604 -346 634 -20 31 -37 34 -88 17 -53 -19 -75 -13 -75 18 0 18 17 34
73 69 98 63 298 176 355 201 145 64 260 75 347 34z m-819 -343 c4 -15 3 -28
-2 -30 -5 -2 -27 -14 -49 -26 l-40 -23 2 -75 c1 -50 17 -139 49 -274 44 -183
48 -210 49 -325 0 -118 -2 -128 -28 -179 -77 -146 -269 -241 -488 -241 -112 0
-184 25 -251 88 -83 78 -101 128 -207 566 -22 92 -47 179 -56 192 -13 20 -24
24 -64 24 -52 0 -75 16 -69 47 2 11 17 20 43 26 22 5 122 29 222 53 100 24
184 44 187 44 11 0 26 -39 20 -53 -3 -9 -17 -18 -32 -22 -51 -12 -72 -33 -72
-71 0 -41 99 -459 129 -548 27 -76 51 -115 105 -164 79 -73 193 -81 312 -22
152 75 177 195 104 505 -55 230 -86 329 -114 362 -21 25 -31 28 -83 28 -58 0
-58 0 -58 29 l0 30 140 33 c77 17 154 36 170 42 55 17 74 13 81 -16z m-2472
-123 c81 -21 195 -67 209 -85 5 -5 6 -54 3 -109 -5 -110 -16 -133 -59 -122
-20 5 -27 14 -32 48 -18 108 -91 183 -193 195 -130 15 -214 -87 -164 -199 23
-52 48 -79 169 -180 146 -123 189 -202 181 -331 -6 -84 -29 -135 -85 -189 -79
-76 -207 -104 -361 -78 -75 12 -204 69 -257 113 l-30 25 0 116 c0 128 11 154
57 143 20 -5 27 -17 36 -57 28 -122 108 -227 191 -250 82 -23 152 -8 197 42
27 29 37 60 36 114 -2 59 -30 110 -94 169 -223 208 -253 253 -253 381 0 72 3
86 30 129 81 129 229 174 419 125z m1001 -124 c126 -35 199 -109 212 -214 11
-94 -41 -178 -138 -221 l-38 -17 52 -18 c127 -43 198 -135 199 -258 1 -162
-106 -266 -309 -299 -80 -12 -630 -2 -639 13 -3 5 -3 20 0 32 5 19 14 24 52
29 78 8 78 7 86 265 3 125 7 309 7 410 1 169 0 183 -19 202 -12 12 -33 20 -54
20 -37 0 -59 19 -54 47 5 26 66 31 343 28 187 -2 253 -6 300 -19z"/>
<path d="M5504 11078 c3 -51 9 -119 12 -150 l7 -58 39 0 c54 0 94 26 113 72
27 68 12 143 -40 195 -29 29 -39 33 -85 33 l-53 0 7 -92z"/>
<path d="M5530 9610 l0 -120 -410 0 -410 0 0 -114 c0 -134 9 -166 64 -226 83
-89 77 -72 62 -203 -12 -103 -17 -121 -42 -153 -85 -106 -104 -151 -104 -255
0 -36 -3 -107 -6 -157 l-7 -92 -639 0 -639 0 4 -1032 c4 -1103 3 -1083 57
-1388 167 -955 687 -1762 1515 -2350 61 -42 145 -99 188 -125 42 -27 76 -50
73 -52 -2 -2 -52 8 -112 22 -337 79 -660 244 -938 476 -171 143 -455 437 -442
458 3 5 31 23 61 40 101 57 97 84 -41 321 -185 315 -370 694 -471 964 -37 100
-87 264 -122 401 -7 29 -9 27 -48 -55 -48 -101 -90 -215 -134 -365 -18 -60
-35 -112 -36 -114 -2 -3 -43 33 -91 80 -48 47 -148 141 -222 208 -74 68 -145
134 -158 148 -27 29 -27 32 -1 -141 55 -375 146 -728 256 -995 45 -108 53
-135 42 -143 -8 -5 -56 -34 -107 -65 -114 -67 -129 -92 -108 -172 24 -95 236
-424 424 -661 106 -134 425 -448 562 -554 417 -322 885 -553 1490 -736 l185
-56 -3 -32 c-2 -18 2 -48 8 -68 27 -81 167 -104 660 -111 359 -5 557 4 707 32
125 24 153 49 153 139 l0 43 83 22 c566 156 1126 419 1518 713 372 279 680
620 935 1033 99 162 138 247 131 291 -8 49 -14 54 -130 125 -56 35 -104 64
-106 66 -2 1 14 42 37 90 104 226 212 630 272 1018 11 72 20 140 20 153 0 19
-48 -21 -245 -202 l-244 -226 -17 57 c-82 292 -112 380 -167 488 l-33 67 -12
-66 c-55 -299 -307 -925 -537 -1336 -121 -216 -125 -224 -125 -266 0 -43 18
-65 106 -131 l29 -22 -165 -163 c-375 -372 -674 -573 -1033 -697 -108 -37
-322 -91 -362 -91 -10 0 23 26 73 58 676 425 1170 981 1464 1646 180 407 280
846 308 1344 5 97 10 567 10 1045 l0 867 -629 0 -630 0 -5 43 c-3 23 -7 101
-10 173 -5 149 -13 177 -79 257 -53 66 -54 66 -67 182 -14 127 -16 121 46 185
74 77 87 120 78 257 l-7 103 -403 0 -404 0 0 120 0 120 -460 0 -460 0 0 -120z
m250 -50 l0 -40 65 0 65 0 0 40 0 40 75 0 75 0 0 -40 0 -40 65 0 65 0 0 40 0
40 75 0 75 0 0 -47 c-1 -56 -18 -91 -80 -167 l-45 -55 -225 0 -225 0 -45 51
c-57 65 -90 131 -90 180 l0 38 75 0 75 0 0 -40z m-800 -205 l0 -35 80 0 80 0
0 35 0 35 60 0 60 0 0 -35 0 -35 80 0 80 0 0 35 0 36 58 -3 57 -3 3 -62 c4
-88 -12 -136 -62 -188 l-43 -45 -238 0 -239 0 -43 48 c-24 26 -48 63 -53 82
-11 40 -13 153 -3 163 3 4 33 7 65 7 l58 0 0 -35z m1578 -2 l3 -33 74 0 74 0
3 33 c3 32 3 32 66 35 l62 3 0 -36 0 -35 80 0 80 0 0 35 0 35 59 0 58 0 7 -55
c10 -87 -7 -142 -62 -197 l-46 -48 -236 0 -236 0 -41 43 c-54 54 -63 81 -63
178 l0 80 58 -3 c56 -3 57 -3 60 -35z m-355 -195 c4 -46 7 -98 7 -116 l0 -32
-222 2 -223 3 3 75 c1 41 5 92 8 113 l6 37 207 0 208 0 6 -82z m-806 -228
l-10 -70 -213 0 -214 0 0 24 c0 13 3 44 6 70 l7 46 216 0 217 0 -9 -70z m1613
28 c0 -24 3 -53 6 -65 l6 -23 -215 0 c-242 0 -219 -8 -232 83 l-6 47 220 0
221 0 0 -42z m-1460 -48 l0 -40 60 0 60 0 0 40 0 40 55 0 55 0 0 -40 0 -40 65
0 65 0 0 40 0 40 80 0 80 0 0 -40 0 -40 60 0 60 0 0 40 0 40 60 0 60 0 0 -40
0 -40 55 0 55 0 0 40 0 40 44 0 44 0 6 -54 c8 -62 -5 -97 -59 -157 -52 -58
-63 -105 -71 -291 l-6 -168 -109 0 -109 0 0 157 c0 139 -2 162 -21 200 -31 63
-92 97 -165 91 -58 -5 -93 -24 -128 -72 -19 -24 -22 -46 -26 -199 l-5 -172
-107 -3 c-60 -1 -108 -1 -109 0 0 2 -4 82 -8 178 -9 193 -17 223 -74 286 -57
65 -66 95 -51 173 6 28 10 31 45 31 39 0 39 0 39 -40z m1518 -161 c40 -46 72
-108 72 -141 l0 -28 -336 0 -336 0 7 33 c10 43 32 84 69 129 l31 38 233 0 233
0 27 -31z m-1628 -16 c37 -42 60 -91 60 -128 l0 -25 -330 0 -330 0 0 25 c0 37
23 86 60 128 l32 37 238 0 238 0 32 -37z m68 -350 l3 -103 -340 0 c-187 0
-341 3 -343 8 -2 4 -2 51 0 105 l3 97 337 -2 337 -3 3 -102z m1636 91 c3 -9 6
-56 6 -105 l0 -89 -346 0 -347 0 6 68 c4 37 7 84 7 105 l0 37 334 0 c295 0
335 -2 340 -16z m1243 -1276 c-4 -701 -9 -958 -19 -1033 l-13 -100 -125 -5
-125 -5 0 -180 0 -180 88 -3 c53 -2 87 -7 87 -13 0 -41 -90 -329 -150 -479
-119 -297 -287 -583 -496 -845 -117 -146 -399 -427 -550 -547 -301 -241 -667
-456 -986 -582 l-116 -46 -54 19 c-182 63 -456 199 -674 335 -255 160 -469
330 -684 546 -377 377 -640 797 -807 1285 -34 99 -93 301 -93 317 0 4 43 8 95
8 l95 0 0 185 0 185 -129 0 -129 0 -6 38 c-24 143 -29 302 -33 1130 l-5 902
2417 0 2416 0 -4 -932z m511 -1585 c16 -48 39 -131 52 -183 12 -52 26 -99 31
-104 9 -10 58 29 252 202 99 88 136 116 132 100 -3 -13 -19 -90 -36 -173 -61
-303 -114 -483 -181 -622 -22 -46 -45 -83 -52 -83 -6 0 -74 45 -151 99 -77 54
-150 101 -162 105 -36 11 -88 -21 -145 -88 -105 -124 -296 -306 -321 -306 -3
0 34 78 83 173 172 335 341 726 395 917 15 52 30 102 32 110 7 22 37 -42 71
-147z m-5739 52 c33 -137 225 -550 435 -934 59 -107 105 -196 103 -198 -8 -8
-165 154 -263 272 -55 66 -115 130 -134 143 -49 33 -97 25 -174 -29 -169 -118
-245 -169 -254 -169 -5 0 -29 44 -54 98 -71 152 -108 280 -173 594 l-43 208
62 -56 c135 -122 309 -269 319 -269 5 0 27 58 49 128 44 147 98 281 108 270 4
-4 13 -30 19 -58z m50 -849 c28 -15 63 -57 332 -396 348 -438 550 -639 832
-827 263 -175 537 -281 957 -370 21 -4 15 -9 -40 -29 -36 -14 -78 -38 -94 -54
l-30 -29 22 -203 c12 -112 25 -243 29 -292 6 -84 5 -88 -13 -83 -10 3 -75 20
-144 37 -475 119 -969 357 -1375 664 -223 168 -490 424 -649 621 -131 163
-376 543 -376 583 0 15 48 52 183 142 204 138 296 205 315 232 16 22 16 22 51
4z m5637 -27 c27 -29 186 -146 368 -270 44 -30 84 -61 89 -70 19 -31 -233
-429 -392 -618 -384 -459 -897 -838 -1447 -1070 -222 -93 -530 -192 -673 -216
l-44 -7 7 83 c4 46 16 170 28 276 11 105 18 203 14 216 -7 30 -53 60 -128 86
-59 21 -61 19 57 41 117 22 296 71 402 109 394 141 688 334 1008 662 186 190
335 375 554 686 94 135 108 143 157 92z m-3266 -1779 c309 -18 802 -10 1046
16 56 6 62 5 68 -14 4 -11 0 -84 -8 -163 -8 -79 -18 -209 -21 -289 -8 -176
-16 -207 -59 -225 -35 -15 -191 -30 -447 -45 -175 -10 -344 -5 -634 21 -149
13 -158 15 -186 45 -21 23 -24 37 -31 187 -4 89 -15 229 -23 311 -19 179 -18
181 64 172 31 -4 134 -11 231 -16z"/>
<path d="M4527 7616 c-170 -71 -265 -239 -236 -418 40 -250 310 -391 543 -285
71 33 150 112 184 185 24 50 27 69 27 162 0 96 -3 110 -29 165 -38 76 -105
143 -181 180 -51 25 -73 30 -155 33 -82 2 -103 -1 -153 -22z"/>
<path d="M7190 7631 c-109 -36 -212 -129 -251 -229 -18 -44 -23 -77 -24 -147
0 -82 3 -97 32 -155 59 -121 167 -201 291 -218 175 -24 331 60 406 218 28 58
31 75 31 160 0 82 -4 103 -27 153 -35 75 -114 157 -185 192 -50 25 -72 29
-153 32 -52 1 -106 -1 -120 -6z"/>
<path d="M3870 6260 l0 -180 185 0 185 0 0 180 0 180 -185 0 -185 0 0 -180z"/>
<path d="M4640 6260 l0 -180 185 0 185 0 0 180 0 180 -185 0 -185 0 0 -180z"/>
<path d="M5410 6260 l0 -180 180 0 180 0 0 180 0 180 -180 0 -180 0 0 -180z"/>
<path d="M6180 6260 l0 -180 185 0 185 0 0 180 0 180 -185 0 -185 0 0 -180z"/>
<path d="M6950 6260 l0 -180 185 0 185 0 0 180 0 180 -185 0 -185 0 0 -180z"/>
<path d="M7720 6260 l0 -180 180 0 180 0 0 180 0 180 -180 0 -180 0 0 -180z"/>
<path d="M4260 5875 l0 -185 180 0 180 0 0 185 0 185 -180 0 -180 0 0 -185z"/>
<path d="M5024 6047 c-2 -7 -3 -89 -2 -182 l3 -170 183 -3 182 -2 0 185 0 185
-180 0 c-138 0 -182 -3 -186 -13z"/>
<path d="M5792 5878 l3 -183 183 -3 182 -2 0 185 0 185 -185 0 -185 0 2 -182z"/>
<path d="M6564 6047 c-2 -7 -3 -89 -2 -182 l3 -170 183 -3 182 -2 0 185 0 185
-180 0 c-138 0 -182 -3 -186 -13z"/>
<path d="M7334 6047 c-2 -7 -3 -89 -2 -182 l3 -170 183 -3 182 -2 0 185 0 185
-180 0 c-138 0 -182 -3 -186 -13z"/>
<path d="M3870 5490 l0 -180 185 0 185 0 0 180 0 180 -185 0 -185 0 0 -180z"/>
<path d="M4640 5490 l0 -180 185 0 185 0 0 180 0 180 -185 0 -185 0 0 -180z"/>
<path d="M5410 5490 l0 -180 180 0 180 0 0 180 0 180 -180 0 -180 0 0 -180z"/>
<path d="M6180 5490 l0 -180 185 0 185 0 0 180 0 180 -185 0 -185 0 0 -180z"/>
<path d="M6950 5490 l0 -180 185 0 185 0 0 180 0 180 -185 0 -185 0 0 -180z"/>
<path d="M7720 5490 l0 -180 180 0 180 0 0 180 0 180 -180 0 -180 0 0 -180z"/>
<path d="M5873 4785 c-242 -75 -348 -363 -211 -577 39 -62 88 -104 161 -139
192 -91 417 -7 510 189 28 60 32 77 32 157 0 80 -4 97 -31 155 -37 79 -79 128
-142 168 -91 58 -223 78 -319 47z"/>
<path d="M3044 4473 c-160 -198 -147 -176 -126 -212 9 -17 22 -31 28 -31 6 0
96 20 200 45 104 25 193 45 197 45 11 0 -25 61 -39 67 -6 2 -75 -14 -152 -36
-77 -23 -144 -41 -147 -41 -4 0 32 44 81 98 48 53 96 107 107 119 19 21 19 22
-5 57 l-24 35 -120 -146z"/>
<path d="M3231 4149 l-150 -132 77 -89 c42 -50 87 -102 99 -116 l22 -27 25 25
25 25 -72 84 -72 84 40 34 40 34 57 -63 c31 -35 57 -66 58 -70 0 -15 27 -8 45
12 17 19 16 21 -45 91 l-62 72 32 31 31 31 27 -30 c15 -17 46 -52 69 -79 l41
-49 27 17 c14 9 25 21 23 26 -2 4 -44 56 -95 114 l-91 106 -151 -131z"/>
<path d="M3505 3830 l-140 -140 28 -27 27 -27 53 52 c29 29 56 52 61 52 16 0
86 -85 86 -106 0 -11 -9 -29 -21 -40 -12 -10 -30 -32 -41 -47 l-20 -28 28 -30
c29 -31 44 -37 44 -18 0 7 18 31 40 55 30 33 40 52 40 77 0 31 1 33 33 29 65
-7 121 71 103 144 -6 23 -160 194 -175 194 -3 0 -69 -63 -146 -140z m245 -71
c0 -28 -11 -49 -31 -60 -24 -12 -62 7 -108 55 l-35 36 39 40 39 40 48 -47 c26
-26 48 -55 48 -64z"/>
<path d="M3831 3529 l-113 -159 23 -20 c13 -10 29 -19 36 -20 6 0 62 70 124
157 l112 156 -27 24 c-15 12 -30 23 -34 23 -4 -1 -58 -73 -121 -161z"/>
<path d="M4065 3567 c-22 -32 -19 -41 25 -66 22 -12 42 -26 45 -31 4 -6 -29
-67 -73 -137 -43 -71 -81 -133 -84 -138 -4 -6 9 -20 27 -32 l34 -22 86 139
c48 77 90 140 94 140 4 0 11 -4 17 -8 5 -5 26 -19 46 -31 l37 -22 15 30 16 29
-135 85 c-134 85 -135 86 -150 64z"/>
<path d="M4445 3303 c-22 -20 -90 -85 -152 -145 l-112 -108 29 -15 c38 -20 43
-19 78 10 l31 26 65 -33 65 -32 -6 -45 c-5 -45 -4 -47 31 -63 43 -21 37 -38
66 192 11 91 23 175 25 187 4 18 -2 26 -34 43 -22 11 -42 20 -43 20 -2 0 -21
-17 -43 -37z m30 -141 c-6 -40 -15 -75 -18 -78 -3 -3 -24 4 -47 16 l-43 22 59
59 c32 32 59 57 60 56 1 -1 -4 -35 -11 -75z"/>
<path d="M4748 3174 c-47 -25 -71 -97 -51 -149 3 -10 44 -42 90 -71 67 -44 83
-59 83 -79 0 -15 -8 -29 -21 -36 -49 -26 -139 18 -139 67 0 16 -9 25 -31 33
-43 15 -52 6 -46 -43 11 -79 124 -147 218 -131 77 13 126 112 84 172 -8 11
-48 42 -90 68 -65 40 -75 50 -75 75 0 16 7 30 16 34 52 20 124 -14 124 -59 0
-17 8 -26 31 -34 49 -17 52 -15 46 35 -3 28 -13 55 -28 71 -52 56 -153 79
-211 47z"/>
<path d="M8764 4499 c-34 -10 -99 -75 -114 -115 -21 -54 -12 -94 29 -135 57
-58 96 -53 177 21 67 61 89 73 113 60 25 -13 27 -49 6 -90 -18 -35 -50 -54
-87 -52 -19 2 -32 -6 -48 -28 l-21 -30 26 -10 c56 -21 107 -6 156 47 40 43 59
87 59 138 0 38 -5 52 -29 75 -32 32 -69 45 -104 36 -12 -3 -54 -33 -92 -66
-42 -36 -78 -59 -89 -58 -45 7 -45 69 0 115 19 19 32 24 54 20 24 -5 32 -1 49
26 15 23 17 33 8 38 -25 13 -63 16 -93 8z"/>
<path d="M8505 4170 l-30 -31 108 -104 c68 -65 107 -110 107 -123 0 -57 -53
-102 -101 -87 -13 4 -67 51 -121 103 l-99 96 -30 -30 -30 -30 115 -107 c153
-141 196 -150 287 -59 50 50 67 98 54 149 -4 16 -53 75 -118 141 l-112 113
-30 -31z"/>
<path d="M8140 3803 c-41 -36 -95 -84 -119 -105 l-44 -38 23 -25 23 -24 47 39
46 39 105 -124 c57 -68 106 -124 109 -124 3 0 18 11 33 24 33 29 43 12 -98
174 l-89 104 42 36 c23 20 42 41 42 47 0 10 -32 44 -41 44 -2 0 -38 -30 -79
-67z"/>
<path d="M7840 3549 c-29 -12 -200 -119 -200 -125 0 -4 198 -323 205 -332 2
-2 12 1 22 7 48 28 48 26 4 96 -34 53 -40 70 -29 77 57 38 101 59 113 54 8 -3
31 -28 51 -56 20 -27 39 -50 42 -50 4 0 22 9 40 20 l34 21 -29 34 c-15 19 -38
48 -51 65 -15 19 -33 30 -48 30 -21 0 -23 3 -14 25 30 79 -62 167 -140 134z
m66 -94 c23 -35 10 -62 -53 -102 -44 -28 -57 -32 -64 -22 -36 54 -51 81 -48
83 2 2 26 18 53 35 60 38 90 39 112 6z"/>
<path d="M7458 3335 l-27 -15 84 -176 c47 -97 85 -178 85 -180 0 -7 60 19 66
28 8 13 -157 358 -171 358 -5 -1 -22 -7 -37 -15z"/>
<path d="M7275 3245 l-31 -13 13 -153 c7 -84 11 -154 10 -156 -2 -2 -45 53
-96 122 l-92 125 -37 -15 c-20 -9 -37 -17 -39 -18 -2 -2 241 -303 261 -325 2
-1 19 5 39 13 l36 15 -5 117 c-8 206 -16 303 -22 302 -4 0 -21 -7 -37 -14z"/>
<path d="M5480 2846 c0 -22 -40 -46 -77 -46 -28 0 -33 -4 -33 -24 0 -21 6 -25
46 -31 l46 -7 -6 -51 c-17 -161 -19 -209 -5 -218 13 -8 58 -13 60 -6 5 18 34
389 30 392 -11 12 -61 4 -61 -9z"/>
<path d="M6450 2853 c-149 -14 -141 -12 -138 -46 2 -18 8 -31 13 -31 6 1 49 5
97 8 l88 7 -40 -73 c-41 -77 -70 -170 -70 -225 0 -32 1 -33 40 -33 l40 0 0 43
c0 65 27 154 71 235 21 41 39 84 39 98 0 23 -3 24 -52 22 -29 0 -69 -3 -88 -5z"/>
<path d="M5650 2804 l0 -34 53 -1 c28 0 71 -4 95 -7 l43 -7 -29 -35 c-44 -53
-92 -144 -108 -202 -20 -76 -19 -78 24 -78 l38 0 12 60 c15 71 59 158 113 222
23 27 39 57 39 72 0 30 -11 32 -172 40 l-108 5 0 -35z"/>
<path d="M6080 2834 c-89 -32 -116 -110 -58 -171 12 -13 16 -23 10 -23 -18 0
-42 -56 -42 -99 0 -62 40 -102 108 -109 30 -2 64 1 82 8 45 19 80 65 80 106 0
40 -22 89 -44 97 -12 5 -11 12 6 46 35 72 -3 134 -89 145 -21 3 -45 3 -53 0z
m64 -67 c36 -27 14 -97 -31 -97 -18 0 -53 37 -53 55 0 18 35 55 53 55 7 0 21
-6 31 -13z m18 -164 c37 -34 12 -113 -36 -113 -29 0 -43 11 -55 43 -24 62 43
114 91 70z"/>
<path d="M9574 9612 c-154 -55 -314 -253 -314 -390 0 -113 78 -192 188 -192
150 0 372 220 389 385 5 45 1 63 -20 107 -47 94 -138 128 -243 90z"/>
<path d="M8121 2088 c-46 -8 -121 -51 -121 -69 0 -8 174 -332 187 -348 10 -13
95 30 135 69 72 70 80 136 31 235 -44 88 -132 131 -232 113z"/>
<path d="M5857 1553 c-4 -3 -7 -85 -7 -181 l0 -175 78 5 c142 8 192 56 192
181 0 50 -5 72 -23 98 -32 49 -97 79 -172 79 -34 0 -65 -3 -68 -7z"/>
<path d="M5858 1110 c-16 -10 -18 -29 -18 -173 0 -225 18 -257 145 -257 94 0
168 43 194 113 6 16 11 55 11 88 0 96 -48 167 -140 208 -55 24 -167 36 -192
21z"/>
</g>
</svg>
