<?xml version="1.0" standalone="no"?>
<!DOCTYPE svg PUBLIC "-//W3C//DTD SVG 20010904//EN"
 "http://www.w3.org/TR/2001/REC-SVG-20010904/DTD/svg10.dtd">
<svg version="1.0" xmlns="http://www.w3.org/2000/svg"
 width="225.000000pt" height="225.000000pt" viewBox="0 0 225.000000 225.000000"
 preserveAspectRatio="xMidYMid meet">

<g transform="translate(0.000000,225.000000) scale(0.100000,-0.100000)"
fill="#000000" stroke="none">
<path d="M955 1859 c-298 -30 -584 -155 -746 -325 -47 -50 -109 -134 -109
-147 0 -3 34 4 76 14 186 44 511 90 745 105 103 6 106 6 135 -19 l29 -25 -4
-526 -3 -525 25 -6 c13 -4 37 -5 53 -3 l29 3 -4 523 c-3 581 -5 565 62 577 80
15 526 -37 794 -93 l133 -28 -16 25 c-82 129 -204 234 -359 311 -252 124 -535
170 -840 139z"/>
<path d="M630 1339 c-154 -12 -335 -36 -461 -61 -85 -17 -113 -26 -121 -41
-16 -30 -12 -178 7 -244 63 -220 280 -411 580 -511 144 -48 136 -50 157 38 46
194 138 676 138 725 0 42 -5 59 -21 73 -35 34 -78 37 -279 21z"/>
<path d="M1395 1343 c-31 -8 -54 -33 -60 -67 -7 -34 17 -187 70 -444 61 -303
79 -374 92 -379 37 -15 301 95 423 176 124 81 241 226 283 350 23 66 33 192
20 241 -9 34 -11 35 -89 52 -227 48 -660 90 -739 71z"/>
</g>
</svg>
